<?xml version="1.0" standalone="no"?>
<!DOCTYPE svg PUBLIC "-//W3C//DTD SVG 20010904//EN"
 "http://www.w3.org/TR/2001/REC-SVG-20010904/DTD/svg10.dtd">
<svg version="1.0" xmlns="http://www.w3.org/2000/svg"
 width="512.000000pt" height="512.000000pt" viewBox="0 0 512.000000 512.000000"
 preserveAspectRatio="xMidYMid meet">
<metadata>
Created by potrace 1.14, written by Peter Selinger 2001-2017
</metadata>
<g transform="translate(0.000000,512.000000) scale(0.100000,-0.100000)"
fill="#000000" stroke="none">
<path d="M4795 5064 c-110 -30 -310 -84 -445 -120 -313 -84 -303 -81 -329
-108 -20 -21 -26 -44 -22 -89 0 -10 26 -45 57 -77 l56 -58 -532 -532 -532
-532 -165 163 c-90 90 -295 296 -456 457 -161 162 -304 300 -319 308 -15 8
-42 14 -60 14 -30 0 -112 -80 -1026 -992 -546 -546 -1000 -1006 -1009 -1022
-31 -60 -18 -80 200 -297 111 -111 215 -208 232 -215 24 -10 36 -10 62 1 18 8
343 325 792 774 l761 761 459 -459 c252 -253 472 -466 487 -473 16 -8 35 -13
42 -12 6 1 20 2 29 3 17 1 566 540 585 574 17 33 19 66 4 95 -15 28 -14 29 51
96 53 54 71 66 87 61 50 -16 68 -17 97 -5 30 13 59 55 59 86 0 10 -5 32 -11
49 -12 31 -10 33 56 98 44 43 72 64 79 58 21 -17 75 -22 98 -11 13 7 118 107
235 223 l212 211 50 -47 c28 -26 57 -48 66 -48 8 -1 21 -2 28 -3 35 -6 93 43
100 84 7 34 35 145 52 200 29 93 195 727 195 743 0 47 -53 98 -102 96 -12 0
-113 -25 -223 -55z"/>
<path d="M4215 3310 c-16 -8 -35 -26 -42 -40 -10 -20 -13 -350 -13 -1547 l0
-1523 -115 0 -115 0 0 926 c0 677 -3 931 -11 947 -31 57 -28 56 -362 57 -334
0 -351 -2 -375 -55 -9 -19 -12 -255 -12 -950 l0 -925 -115 0 -115 0 0 661 c0
599 -2 664 -17 689 -9 16 -27 33 -40 39 -16 7 -130 11 -324 11 -327 0 -343 -3
-368 -57 -8 -16 -11 -231 -11 -683 l0 -660 -115 0 -115 0 0 926 c0 677 -3 931
-11 947 -31 57 -28 56 -362 57 -336 0 -351 -2 -376 -57 -8 -17 -11 -305 -11
-948 l0 -925 -115 0 -115 0 0 466 c0 520 -1 526 -64 542 -17 5 -167 8 -333 8
l-303 -1 -27 -28 -28 -27 -3 -480 -3 -480 -60 0 c-102 0 -151 -47 -132 -127 6
-29 17 -42 43 -55 33 -17 174 -18 2512 -18 1831 0 2484 3 2502 11 25 12 56 63
56 93 0 59 -53 96 -139 96 l-61 0 0 1519 c0 942 -4 1529 -10 1545 -21 57 -34
59 -363 60 -250 1 -307 -2 -332 -14z"/>
</g>
</svg>
